<mxfile host="app.diagrams.net" modified="2020-05-13T09:05:26.358Z" agent="5.0 (Windows NT 10.0; Win64; x64) AppleWebKit/537.36 (KHTML, like Gecko) Chrome/80.0.3987.163 Safari/537.36" etag="7ODHwWaegXHtSPRqhTZX" version="13.0.9" type="github">
  <diagram id="Rv57P3Tbl4RRtFDNti8X" name="第 1 页">
    <mxGraphModel dx="1730" dy="972" grid="1" gridSize="10" guides="1" tooltips="1" connect="1" arrows="1" fold="1" page="1" pageScale="1" pageWidth="1920" pageHeight="1200" math="0" shadow="0">
      <root>
        <mxCell id="0" />
        <mxCell id="1" parent="0" />
        <mxCell id="j1oXeC3f0F-jCX5uVqJW-15" value="" style="group" vertex="1" connectable="0" parent="1">
          <mxGeometry x="300" y="415" width="240" height="510" as="geometry" />
        </mxCell>
        <mxCell id="j1oXeC3f0F-jCX5uVqJW-14" value="" style="rounded=0;whiteSpace=wrap;html=1;dashed=1;fillColor=none;" vertex="1" parent="j1oXeC3f0F-jCX5uVqJW-15">
          <mxGeometry width="240" height="510" as="geometry" />
        </mxCell>
        <mxCell id="j1oXeC3f0F-jCX5uVqJW-8" value="" style="group" vertex="1" connectable="0" parent="j1oXeC3f0F-jCX5uVqJW-15">
          <mxGeometry x="10" y="230" width="220" height="270" as="geometry" />
        </mxCell>
        <mxCell id="j1oXeC3f0F-jCX5uVqJW-7" value="" style="rounded=0;whiteSpace=wrap;html=1;fillColor=none;dashed=1;" vertex="1" parent="j1oXeC3f0F-jCX5uVqJW-8">
          <mxGeometry width="220" height="270" as="geometry" />
        </mxCell>
        <mxCell id="j1oXeC3f0F-jCX5uVqJW-2" value="&lt;font style=&quot;font-size: 22px&quot;&gt;Flume Agg&lt;/font&gt;" style="rounded=1;whiteSpace=wrap;html=1;shadow=1;" vertex="1" parent="j1oXeC3f0F-jCX5uVqJW-8">
          <mxGeometry x="20" y="30" width="180" height="60" as="geometry" />
        </mxCell>
        <mxCell id="j1oXeC3f0F-jCX5uVqJW-5" value="&lt;font style=&quot;font-size: 22px&quot;&gt;Flume Agg&lt;/font&gt;" style="rounded=1;whiteSpace=wrap;html=1;shadow=1;" vertex="1" parent="j1oXeC3f0F-jCX5uVqJW-8">
          <mxGeometry x="20" y="110" width="180" height="60" as="geometry" />
        </mxCell>
        <mxCell id="j1oXeC3f0F-jCX5uVqJW-6" value="&lt;font style=&quot;font-size: 22px&quot;&gt;Flume Agg&lt;/font&gt;" style="rounded=1;whiteSpace=wrap;html=1;shadow=1;" vertex="1" parent="j1oXeC3f0F-jCX5uVqJW-8">
          <mxGeometry x="20" y="190" width="180" height="60" as="geometry" />
        </mxCell>
        <mxCell id="j1oXeC3f0F-jCX5uVqJW-10" value="&lt;span style=&quot;font-size: 18px&quot;&gt;Receive&amp;nbsp;listening&lt;/span&gt;" style="text;html=1;strokeColor=#d6b656;fillColor=#fff2cc;align=center;verticalAlign=middle;whiteSpace=wrap;rounded=0;dashed=1;" vertex="1" parent="j1oXeC3f0F-jCX5uVqJW-15">
          <mxGeometry x="42.5" y="10" width="155" height="70" as="geometry" />
        </mxCell>
        <mxCell id="j1oXeC3f0F-jCX5uVqJW-11" value="&lt;font style=&quot;font-size: 18px&quot;&gt;Local Cache&lt;br&gt;（Mapping）&lt;/font&gt;" style="text;html=1;strokeColor=#d6b656;fillColor=#fff2cc;align=center;verticalAlign=middle;whiteSpace=wrap;rounded=0;dashed=1;" vertex="1" parent="j1oXeC3f0F-jCX5uVqJW-15">
          <mxGeometry x="55" y="120" width="130" height="70" as="geometry" />
        </mxCell>
        <mxCell id="j1oXeC3f0F-jCX5uVqJW-12" value="" style="endArrow=classic;html=1;exitX=0.5;exitY=1;exitDx=0;exitDy=0;entryX=0.5;entryY=0;entryDx=0;entryDy=0;" edge="1" parent="j1oXeC3f0F-jCX5uVqJW-15" source="j1oXeC3f0F-jCX5uVqJW-11" target="j1oXeC3f0F-jCX5uVqJW-7">
          <mxGeometry width="50" height="50" relative="1" as="geometry">
            <mxPoint x="340" y="200" as="sourcePoint" />
            <mxPoint x="390" y="150" as="targetPoint" />
          </mxGeometry>
        </mxCell>
        <mxCell id="j1oXeC3f0F-jCX5uVqJW-13" value="" style="endArrow=classic;html=1;exitX=0.5;exitY=1;exitDx=0;exitDy=0;" edge="1" parent="j1oXeC3f0F-jCX5uVqJW-15" source="j1oXeC3f0F-jCX5uVqJW-10" target="j1oXeC3f0F-jCX5uVqJW-11">
          <mxGeometry width="50" height="50" relative="1" as="geometry">
            <mxPoint x="330" y="180" as="sourcePoint" />
            <mxPoint x="380" y="130" as="targetPoint" />
          </mxGeometry>
        </mxCell>
        <mxCell id="j1oXeC3f0F-jCX5uVqJW-44" value="&lt;font style=&quot;font-size: 20px&quot;&gt;&lt;b&gt;4&lt;/b&gt;&lt;/font&gt;" style="text;html=1;strokeColor=none;fillColor=none;align=center;verticalAlign=middle;whiteSpace=wrap;rounded=0;" vertex="1" parent="j1oXeC3f0F-jCX5uVqJW-15">
          <mxGeometry x="10" y="90" width="40" height="30" as="geometry" />
        </mxCell>
        <mxCell id="j1oXeC3f0F-jCX5uVqJW-1" value="&lt;font style=&quot;font-size: 20px&quot;&gt;GLOG/TLOG&lt;/font&gt;" style="shape=process;whiteSpace=wrap;html=1;backgroundOutline=1;shadow=1;" vertex="1" parent="1">
          <mxGeometry x="20" y="640" width="210" height="60" as="geometry" />
        </mxCell>
        <mxCell id="j1oXeC3f0F-jCX5uVqJW-9" value="" style="endArrow=classic;html=1;exitX=1;exitY=0.5;exitDx=0;exitDy=0;entryX=0;entryY=0.5;entryDx=0;entryDy=0;" edge="1" parent="1" source="j1oXeC3f0F-jCX5uVqJW-1" target="j1oXeC3f0F-jCX5uVqJW-14">
          <mxGeometry width="50" height="50" relative="1" as="geometry">
            <mxPoint x="240" y="955" as="sourcePoint" />
            <mxPoint x="290" y="735" as="targetPoint" />
          </mxGeometry>
        </mxCell>
        <mxCell id="j1oXeC3f0F-jCX5uVqJW-16" value="&lt;font style=&quot;font-size: 20px&quot;&gt;Kafka Cluster&lt;/font&gt;" style="ellipse;shape=cloud;whiteSpace=wrap;html=1;fillColor=#ffffff;shadow=1;" vertex="1" parent="1">
          <mxGeometry x="750" y="730" width="230" height="95" as="geometry" />
        </mxCell>
        <mxCell id="j1oXeC3f0F-jCX5uVqJW-19" value="" style="endArrow=classic;html=1;exitX=1;exitY=0.5;exitDx=0;exitDy=0;entryX=0.16;entryY=0.55;entryDx=0;entryDy=0;entryPerimeter=0;" edge="1" parent="1" source="j1oXeC3f0F-jCX5uVqJW-7" target="j1oXeC3f0F-jCX5uVqJW-16">
          <mxGeometry width="50" height="50" relative="1" as="geometry">
            <mxPoint x="640" y="845" as="sourcePoint" />
            <mxPoint x="690" y="795" as="targetPoint" />
          </mxGeometry>
        </mxCell>
        <mxCell id="j1oXeC3f0F-jCX5uVqJW-20" value="" style="endArrow=classic;html=1;exitX=0.4;exitY=0.1;exitDx=0;exitDy=0;exitPerimeter=0;entryX=1;entryY=0.5;entryDx=0;entryDy=0;strokeColor=#007FFF;strokeWidth=2;" edge="1" parent="1" source="j1oXeC3f0F-jCX5uVqJW-16" target="j1oXeC3f0F-jCX5uVqJW-10">
          <mxGeometry width="50" height="50" relative="1" as="geometry">
            <mxPoint x="690" y="585" as="sourcePoint" />
            <mxPoint x="740" y="535" as="targetPoint" />
          </mxGeometry>
        </mxCell>
        <mxCell id="j1oXeC3f0F-jCX5uVqJW-22" value="&lt;font style=&quot;font-size: 18px&quot;&gt;Normal Message&lt;/font&gt;" style="text;html=1;strokeColor=#d6b656;fillColor=#fff2cc;align=center;verticalAlign=middle;whiteSpace=wrap;rounded=0;" vertex="1" parent="1">
          <mxGeometry x="570" y="712.5" width="150" height="40" as="geometry" />
        </mxCell>
        <mxCell id="j1oXeC3f0F-jCX5uVqJW-23" value="&lt;font style=&quot;font-size: 20px&quot;&gt;Rtc-Manager&lt;/font&gt;" style="shape=process;whiteSpace=wrap;html=1;backgroundOutline=1;fillColor=#ffffff;shadow=1;" vertex="1" parent="1">
          <mxGeometry x="792" y="290" width="200" height="60" as="geometry" />
        </mxCell>
        <mxCell id="j1oXeC3f0F-jCX5uVqJW-24" value="&lt;font style=&quot;font-size: 20px&quot;&gt;Apollo&lt;/font&gt;" style="rounded=1;whiteSpace=wrap;html=1;fillColor=#ffffff;shadow=1;" vertex="1" parent="1">
          <mxGeometry x="817" y="430" width="150" height="60" as="geometry" />
        </mxCell>
        <mxCell id="j1oXeC3f0F-jCX5uVqJW-25" value="" style="endArrow=classic;html=1;strokeColor=#000000;strokeWidth=1;exitX=0.5;exitY=1;exitDx=0;exitDy=0;entryX=0.5;entryY=0;entryDx=0;entryDy=0;" edge="1" parent="1" source="j1oXeC3f0F-jCX5uVqJW-23" target="j1oXeC3f0F-jCX5uVqJW-24">
          <mxGeometry width="50" height="50" relative="1" as="geometry">
            <mxPoint x="997" y="550" as="sourcePoint" />
            <mxPoint x="1047" y="500" as="targetPoint" />
          </mxGeometry>
        </mxCell>
        <mxCell id="j1oXeC3f0F-jCX5uVqJW-26" value="" style="endArrow=classic;html=1;strokeColor=#0066CC;strokeWidth=2;exitX=0.5;exitY=1;exitDx=0;exitDy=0;entryX=0.625;entryY=0.2;entryDx=0;entryDy=0;entryPerimeter=0;" edge="1" parent="1" source="j1oXeC3f0F-jCX5uVqJW-24" target="j1oXeC3f0F-jCX5uVqJW-16">
          <mxGeometry width="50" height="50" relative="1" as="geometry">
            <mxPoint x="910" y="745" as="sourcePoint" />
            <mxPoint x="960" y="695" as="targetPoint" />
          </mxGeometry>
        </mxCell>
        <mxCell id="j1oXeC3f0F-jCX5uVqJW-27" value="&lt;font style=&quot;font-size: 18px&quot;&gt;Routing Message&lt;/font&gt;" style="text;html=1;strokeColor=#6c8ebf;fillColor=#dae8fc;align=center;verticalAlign=middle;whiteSpace=wrap;rounded=0;" vertex="1" parent="1">
          <mxGeometry x="630" y="515" width="170" height="40" as="geometry" />
        </mxCell>
        <mxCell id="j1oXeC3f0F-jCX5uVqJW-28" value="" style="shape=umlActor;verticalLabelPosition=bottom;labelBackgroundColor=#ffffff;verticalAlign=top;html=1;outlineConnect=0;fillColor=#ffffff;strokeWidth=3;" vertex="1" parent="1">
          <mxGeometry x="877" y="160" width="30" height="60" as="geometry" />
        </mxCell>
        <mxCell id="j1oXeC3f0F-jCX5uVqJW-29" value="" style="endArrow=classic;html=1;strokeColor=#000000;strokeWidth=1;entryX=0.5;entryY=0;entryDx=0;entryDy=0;" edge="1" parent="1" source="j1oXeC3f0F-jCX5uVqJW-28" target="j1oXeC3f0F-jCX5uVqJW-23">
          <mxGeometry width="50" height="50" relative="1" as="geometry">
            <mxPoint x="897" y="250" as="sourcePoint" />
            <mxPoint x="1107" y="170" as="targetPoint" />
          </mxGeometry>
        </mxCell>
        <mxCell id="j1oXeC3f0F-jCX5uVqJW-30" value="&lt;font style=&quot;font-size: 20px&quot;&gt;Xxx-Bridge&lt;/font&gt;" style="rounded=1;whiteSpace=wrap;html=1;strokeWidth=2;fillColor=#ffffff;shadow=1;" vertex="1" parent="1">
          <mxGeometry x="792" y="895" width="170" height="60" as="geometry" />
        </mxCell>
        <mxCell id="j1oXeC3f0F-jCX5uVqJW-31" value="&lt;font style=&quot;font-size: 20px&quot;&gt;Flink Split (ETL)&lt;/font&gt;" style="rounded=1;whiteSpace=wrap;html=1;strokeWidth=2;fillColor=#ffffff;shadow=1;" vertex="1" parent="1">
          <mxGeometry x="1060" y="747.5" width="170" height="60" as="geometry" />
        </mxCell>
        <mxCell id="j1oXeC3f0F-jCX5uVqJW-34" value="" style="endArrow=classic;html=1;strokeColor=#FF9933;strokeWidth=2;exitX=0.875;exitY=0.5;exitDx=0;exitDy=0;exitPerimeter=0;entryX=0;entryY=0.5;entryDx=0;entryDy=0;" edge="1" parent="1" source="j1oXeC3f0F-jCX5uVqJW-16" target="j1oXeC3f0F-jCX5uVqJW-31">
          <mxGeometry width="50" height="50" relative="1" as="geometry">
            <mxPoint x="950" y="935" as="sourcePoint" />
            <mxPoint x="1000" y="885" as="targetPoint" />
          </mxGeometry>
        </mxCell>
        <mxCell id="j1oXeC3f0F-jCX5uVqJW-35" value="" style="edgeStyle=elbowEdgeStyle;elbow=vertical;endArrow=classic;html=1;strokeColor=#FF9933;strokeWidth=2;entryX=0.8;entryY=0.8;entryDx=0;entryDy=0;entryPerimeter=0;exitX=0.5;exitY=1;exitDx=0;exitDy=0;" edge="1" parent="1" source="j1oXeC3f0F-jCX5uVqJW-31" target="j1oXeC3f0F-jCX5uVqJW-16">
          <mxGeometry width="50" height="50" relative="1" as="geometry">
            <mxPoint x="990" y="915" as="sourcePoint" />
            <mxPoint x="1040" y="865" as="targetPoint" />
            <Array as="points">
              <mxPoint x="1010" y="855" />
            </Array>
          </mxGeometry>
        </mxCell>
        <mxCell id="j1oXeC3f0F-jCX5uVqJW-36" value="" style="endArrow=classic;html=1;strokeColor=#000000;strokeWidth=1;entryX=0.5;entryY=0;entryDx=0;entryDy=0;exitX=0.55;exitY=0.95;exitDx=0;exitDy=0;exitPerimeter=0;" edge="1" parent="1" source="j1oXeC3f0F-jCX5uVqJW-16" target="j1oXeC3f0F-jCX5uVqJW-30">
          <mxGeometry width="50" height="50" relative="1" as="geometry">
            <mxPoint x="840" y="915" as="sourcePoint" />
            <mxPoint x="890" y="865" as="targetPoint" />
          </mxGeometry>
        </mxCell>
        <mxCell id="j1oXeC3f0F-jCX5uVqJW-37" value="&lt;font style=&quot;font-size: 20px&quot;&gt;Disk&lt;/font&gt;" style="shape=cylinder;whiteSpace=wrap;html=1;boundedLbl=1;backgroundOutline=1;strokeWidth=1;fillColor=#ffffff;shadow=1;" vertex="1" parent="1">
          <mxGeometry x="800" y="1025" width="430" height="60" as="geometry" />
        </mxCell>
        <mxCell id="j1oXeC3f0F-jCX5uVqJW-38" value="" style="endArrow=classic;html=1;strokeColor=#000000;strokeWidth=1;exitX=0.5;exitY=1;exitDx=0;exitDy=0;entryX=0.182;entryY=0.048;entryDx=0;entryDy=0;entryPerimeter=0;" edge="1" parent="1" source="j1oXeC3f0F-jCX5uVqJW-30" target="j1oXeC3f0F-jCX5uVqJW-37">
          <mxGeometry width="50" height="50" relative="1" as="geometry">
            <mxPoint x="660" y="1075" as="sourcePoint" />
            <mxPoint x="710" y="1025" as="targetPoint" />
          </mxGeometry>
        </mxCell>
        <mxCell id="j1oXeC3f0F-jCX5uVqJW-39" value="" style="endArrow=classic;html=1;strokeColor=#FF3333;strokeWidth=2;exitX=0.75;exitY=1;exitDx=0;exitDy=0;entryX=0.905;entryY=0.067;entryDx=0;entryDy=0;entryPerimeter=0;dashed=1;" edge="1" parent="1" source="j1oXeC3f0F-jCX5uVqJW-31" target="j1oXeC3f0F-jCX5uVqJW-37">
          <mxGeometry width="50" height="50" relative="1" as="geometry">
            <mxPoint x="1180" y="965" as="sourcePoint" />
            <mxPoint x="1230" y="915" as="targetPoint" />
          </mxGeometry>
        </mxCell>
        <mxCell id="j1oXeC3f0F-jCX5uVqJW-40" value="&lt;font style=&quot;font-size: 20px&quot;&gt;&lt;b&gt;1&lt;/b&gt;&lt;/font&gt;" style="text;html=1;strokeColor=none;fillColor=none;align=center;verticalAlign=middle;whiteSpace=wrap;rounded=0;" vertex="1" parent="1">
          <mxGeometry x="919" y="240" width="40" height="30" as="geometry" />
        </mxCell>
        <mxCell id="j1oXeC3f0F-jCX5uVqJW-41" value="&lt;font style=&quot;font-size: 20px&quot;&gt;&lt;b&gt;2&lt;/b&gt;&lt;/font&gt;" style="text;html=1;strokeColor=none;fillColor=none;align=center;verticalAlign=middle;whiteSpace=wrap;rounded=0;" vertex="1" parent="1">
          <mxGeometry x="919" y="525" width="40" height="30" as="geometry" />
        </mxCell>
        <mxCell id="j1oXeC3f0F-jCX5uVqJW-43" value="&lt;font style=&quot;font-size: 20px&quot;&gt;&lt;b&gt;3&lt;/b&gt;&lt;/font&gt;" style="text;html=1;strokeColor=none;fillColor=none;align=center;verticalAlign=middle;whiteSpace=wrap;rounded=0;" vertex="1" parent="1">
          <mxGeometry x="630" y="610" width="40" height="30" as="geometry" />
        </mxCell>
        <mxCell id="j1oXeC3f0F-jCX5uVqJW-45" value="&lt;font style=&quot;font-size: 20px&quot;&gt;&lt;b&gt;5&lt;/b&gt;&lt;/font&gt;" style="text;html=1;strokeColor=none;fillColor=none;align=center;verticalAlign=middle;whiteSpace=wrap;rounded=0;" vertex="1" parent="1">
          <mxGeometry x="630" y="805" width="40" height="30" as="geometry" />
        </mxCell>
        <mxCell id="j1oXeC3f0F-jCX5uVqJW-48" value="&lt;font style=&quot;font-size: 20px&quot;&gt;&lt;b&gt;6&lt;/b&gt;&lt;/font&gt;" style="text;html=1;strokeColor=none;fillColor=none;align=center;verticalAlign=middle;whiteSpace=wrap;rounded=0;" vertex="1" parent="1">
          <mxGeometry x="1000" y="807.5" width="40" height="30" as="geometry" />
        </mxCell>
        <mxCell id="j1oXeC3f0F-jCX5uVqJW-49" value="&lt;font style=&quot;font-size: 20px&quot;&gt;&lt;b&gt;7&lt;/b&gt;&lt;/font&gt;" style="text;html=1;strokeColor=none;fillColor=none;align=center;verticalAlign=middle;whiteSpace=wrap;rounded=0;" vertex="1" parent="1">
          <mxGeometry x="900" y="975" width="40" height="30" as="geometry" />
        </mxCell>
        <mxCell id="j1oXeC3f0F-jCX5uVqJW-51" value="" style="endArrow=classic;html=1;dashed=1;strokeColor=#B3B3B3;strokeWidth=2;exitX=1;exitY=0.5;exitDx=0;exitDy=0;entryX=0;entryY=0.5;entryDx=0;entryDy=0;" edge="1" parent="1" source="j1oXeC3f0F-jCX5uVqJW-10" target="j1oXeC3f0F-jCX5uVqJW-24">
          <mxGeometry width="50" height="50" relative="1" as="geometry">
            <mxPoint x="630" y="370" as="sourcePoint" />
            <mxPoint x="680" y="320" as="targetPoint" />
          </mxGeometry>
        </mxCell>
        <mxCell id="j1oXeC3f0F-jCX5uVqJW-52" value="&lt;font style=&quot;font-size: 18px&quot;&gt;Cron Pull&lt;/font&gt;" style="text;html=1;strokeColor=#CCCCCC;fillColor=#F2F2F2;align=center;verticalAlign=middle;whiteSpace=wrap;rounded=0;fontColor=#333333;" vertex="1" parent="1">
          <mxGeometry x="620" y="410" width="100" height="40" as="geometry" />
        </mxCell>
        <mxCell id="j1oXeC3f0F-jCX5uVqJW-53" value="&lt;font style=&quot;font-size: 20px&quot;&gt;nacos&amp;nbsp;&lt;/font&gt;" style="shape=note;whiteSpace=wrap;html=1;backgroundOutline=1;darkOpacity=0.05;shadow=0;strokeColor=#82b366;strokeWidth=1;fillColor=#d5e8d4;" vertex="1" parent="1">
          <mxGeometry x="1095" y="480" width="100" height="110" as="geometry" />
        </mxCell>
        <mxCell id="j1oXeC3f0F-jCX5uVqJW-54" value="" style="edgeStyle=segmentEdgeStyle;endArrow=classic;html=1;strokeColor=#000000;strokeWidth=1;entryX=0;entryY=0;entryDx=35;entryDy=0;entryPerimeter=0;exitX=1;exitY=0.5;exitDx=0;exitDy=0;" edge="1" parent="1" source="j1oXeC3f0F-jCX5uVqJW-23" target="j1oXeC3f0F-jCX5uVqJW-53">
          <mxGeometry width="50" height="50" relative="1" as="geometry">
            <mxPoint x="1170" y="390" as="sourcePoint" />
            <mxPoint x="1220" y="340" as="targetPoint" />
          </mxGeometry>
        </mxCell>
        <mxCell id="j1oXeC3f0F-jCX5uVqJW-55" value="" style="endArrow=classic;html=1;strokeColor=#000000;strokeWidth=1;exitX=0.5;exitY=1;exitDx=0;exitDy=0;exitPerimeter=0;entryX=0.5;entryY=0;entryDx=0;entryDy=0;" edge="1" parent="1" source="j1oXeC3f0F-jCX5uVqJW-53" target="j1oXeC3f0F-jCX5uVqJW-31">
          <mxGeometry width="50" height="50" relative="1" as="geometry">
            <mxPoint x="1340" y="700" as="sourcePoint" />
            <mxPoint x="1390" y="650" as="targetPoint" />
          </mxGeometry>
        </mxCell>
        <mxCell id="j1oXeC3f0F-jCX5uVqJW-56" value="&lt;font style=&quot;font-size: 35px&quot; color=&quot;#cccccc&quot;&gt;X&lt;/font&gt;" style="text;html=1;align=center;verticalAlign=middle;whiteSpace=wrap;rounded=0;shadow=0;" vertex="1" parent="1">
          <mxGeometry x="1110" y="340" width="40" height="40" as="geometry" />
        </mxCell>
      </root>
    </mxGraphModel>
  </diagram>
</mxfile>
